<svg width="375" height="828" viewBox="0 0 375 828" fill="none" xmlns="http://www.w3.org/2000/svg">
<g opacity="0.7">
<path d="M247.5 571.5C247.5 578.029 245.606 584.021 242.585 588.194C239.585 592.336 236.044 594 233 594C229.956 594 226.415 592.336 223.415 588.194C220.394 584.021 218.5 578.029 218.5 571.5" stroke="#2A9D8F" stroke-width="13"/>
<path d="M262.5 570.5C262.5 581.422 259.091 591.668 253.337 599.021C247.612 606.336 240.238 610 233 610C225.762 610 218.388 606.336 212.663 599.021C206.909 591.668 203.5 581.422 203.5 570.5" stroke="#1D4B45" stroke-width="13"/>
<path d="M277.5 569.5C277.5 584.877 272.543 599.417 264.01 609.958C255.507 620.462 244.305 626 233 626C221.695 626 210.493 620.462 201.99 609.958C193.457 599.417 188.5 584.877 188.5 569.5" stroke="#F96F24" stroke-width="13"/>
<path d="M292.5 568C292.5 587.998 285.976 606.978 274.642 620.801C263.339 634.588 248.317 642 233 642C217.683 642 202.661 634.588 191.357 620.801C180.024 606.978 173.5 587.998 173.5 568" stroke="#F4392A" stroke-width="13"/>
<path d="M307.5 566.5C307.5 590.843 299.415 614.004 285.286 630.923C271.187 647.808 252.342 657 233 657C213.658 657 194.813 647.808 180.714 630.923C166.585 614.004 158.5 590.843 158.5 566.5" stroke="#FBB428" stroke-width="13"/>
<rect x="212" y="576.269" width="265.467" height="13" transform="rotate(-90 212 576.269)" fill="#2A9D8F"/>
<rect x="241" y="576.269" width="862.769" height="13" transform="rotate(-90 241 576.269)" fill="#2A9D8F"/>
<rect x="256" y="576.269" width="862.769" height="13" transform="rotate(-90 256 576.269)" fill="#1D4B45"/>
<rect x="152" y="576.269" width="265.467" height="13" transform="rotate(-90 152 576.269)" fill="#FBB428"/>
<rect x="271" y="576.269" width="862.769" height="13" transform="rotate(-90 271 576.269)" fill="#F96F24"/>
<rect x="286" y="576.269" width="862.769" height="13" transform="rotate(-90 286 576.269)" fill="#F4392A"/>
<rect x="301" y="576.269" width="862.769" height="13" transform="rotate(-90 301 576.269)" fill="#FBB428"/>
<rect x="197" y="576.269" width="265.467" height="13" transform="rotate(-90 197 576.269)" fill="#1D4B45"/>
<rect x="167" y="576.269" width="265.467" height="13" transform="rotate(-90 167 576.269)" fill="#F4392A"/>
<rect x="182" y="576.269" width="265.467" height="13" transform="rotate(-90 182 576.269)" fill="#F96F24"/>
<path d="M129.5 213.535C129.5 209.526 131.061 205.708 133.796 202.914C136.526 200.124 140.2 198.583 144 198.583C147.8 198.583 151.474 200.124 154.204 202.914C156.939 205.708 158.5 209.526 158.5 213.535" stroke="#FBB428" stroke-width="13"/>
<path d="M114.5 213.536C114.5 205.463 117.641 197.747 123.189 192.079C128.733 186.417 136.221 183.261 144 183.261C151.779 183.261 159.267 186.417 164.811 192.079C170.359 197.747 173.5 205.463 173.5 213.536" stroke="#F4392A" stroke-width="13"/>
<path d="M99.5 213.536C99.5 201.399 104.221 189.786 112.582 181.244C120.939 172.708 132.243 167.938 144 167.938C155.757 167.938 167.061 172.708 175.418 181.244C183.779 189.786 188.5 201.399 188.5 213.536" stroke="#F96F24" stroke-width="13"/>
<path d="M84.5 213.536C84.5 197.335 90.8016 181.824 101.976 170.409C113.145 158.999 128.265 152.615 144 152.615C159.735 152.615 174.855 158.999 186.024 170.409C197.198 181.824 203.5 197.335 203.5 213.536" stroke="#1D4B45" stroke-width="13"/>
<path d="M69.5 213.536C69.5 193.271 77.382 173.863 91.3692 159.574C105.352 145.291 124.287 137.292 144 137.292C163.713 137.292 182.648 145.291 196.631 159.574C210.618 173.863 218.5 193.271 218.5 213.536" stroke="#2A9D8F" stroke-width="13"/>
<rect x="165" y="212.514" width="177.745" height="13" transform="rotate(90 165 212.514)" fill="#FBB428"/>
<rect x="136" y="212.514" width="900.986" height="13" transform="rotate(90 136 212.514)" fill="#FBB428"/>
<rect x="121" y="212.514" width="900.986" height="13" transform="rotate(90 121 212.514)" fill="#F4392A"/>
<rect x="225" y="212.514" width="177.745" height="13" transform="rotate(90 225 212.514)" fill="#2A9D8F"/>
<rect x="106" y="212.514" width="900.986" height="13" transform="rotate(90 106 212.514)" fill="#F96F24"/>
<rect x="91" y="212.514" width="900.986" height="13" transform="rotate(90 91 212.514)" fill="#1D4B45"/>
<rect x="76" y="212.514" width="900.986" height="13" transform="rotate(90 76 212.514)" fill="#2A9D8F"/>
<rect x="180" y="212.514" width="177.745" height="13" transform="rotate(90 180 212.514)" fill="#F4392A"/>
<rect x="210" y="212.514" width="177.745" height="13" transform="rotate(90 210 212.514)" fill="#1D4B45"/>
<rect x="195" y="212.514" width="177.745" height="13" transform="rotate(90 195 212.514)" fill="#F96F24"/>
</g>
</svg>
