<svg width="26" height="26" viewBox="0 0 26 26" fill="none" xmlns="http://www.w3.org/2000/svg">
<g clip-path="url(#clip0_6010_53)">
<g filter="url(#filter0_d_6010_53)">
<path fill-rule="evenodd" clip-rule="evenodd" d="M18.3105 7.26195C18.3758 7.52366 18.611 7.70714 18.881 7.70714H23.5857C24.0539 7.70714 24.5026 7.89298 24.8331 8.22408C25.1642 8.55458 25.35 9.0033 25.35 9.47143V21.2333C25.35 21.7015 25.1642 22.1502 24.8331 22.4807C24.5026 22.8118 24.0539 22.9976 23.5857 22.9976C18.6651 22.9976 7.33491 22.9976 2.41431 22.9976C1.94618 22.9976 1.49747 22.8118 1.16696 22.4807C0.835859 22.1502 0.650024 21.7015 0.650024 21.2333V9.47143C0.650024 9.0033 0.835859 8.55458 1.16696 8.22408C1.49747 7.89298 1.94618 7.70714 2.41431 7.70714H7.11907C7.38901 7.70714 7.62424 7.52366 7.68952 7.26195L8.42053 4.33853C8.61695 3.55342 9.32266 3.00238 10.1319 3.00238H15.8682C16.678 3.00238 17.3831 3.55342 17.5795 4.33853L18.3105 7.26195ZM13 10.0595C10.079 10.0595 7.70717 12.4313 7.70717 15.3524C7.70717 18.2734 10.079 20.6452 13 20.6452C15.9211 20.6452 18.2929 18.2734 18.2929 15.3524C18.2929 12.4313 15.9211 10.0595 13 10.0595ZM13 11.2357C15.2718 11.2357 17.1167 13.0806 17.1167 15.3524C17.1167 17.6242 15.2718 19.469 13 19.469C10.7282 19.469 8.88336 17.6242 8.88336 15.3524C8.88336 13.0806 10.7282 11.2357 13 11.2357Z" fill="#688682"/>
</g>
</g>
<defs>
<filter id="filter0_d_6010_53" x="-1.34998" y="2.00238" width="28.7" height="23.9952" filterUnits="userSpaceOnUse" color-interpolation-filters="sRGB">
<feFlood flood-opacity="0" result="BackgroundImageFix"/>
<feColorMatrix in="SourceAlpha" type="matrix" values="0 0 0 0 0 0 0 0 0 0 0 0 0 0 0 0 0 0 127 0" result="hardAlpha"/>
<feOffset dy="1"/>
<feGaussianBlur stdDeviation="1"/>
<feComposite in2="hardAlpha" operator="out"/>
<feColorMatrix type="matrix" values="0 0 0 0 0 0 0 0 0 0 0 0 0 0 0 0 0 0 0.08 0"/>
<feBlend mode="normal" in2="BackgroundImageFix" result="effect1_dropShadow_6010_53"/>
<feBlend mode="normal" in="SourceGraphic" in2="effect1_dropShadow_6010_53" result="shape"/>
</filter>
<clipPath id="clip0_6010_53">
<rect width="26" height="26" fill="white"/>
</clipPath>
</defs>
</svg>
